<svg xmlns="http://www.w3.org/2000/svg" version="1.1" xmlns:xlink="http://www.w3.org/1999/xlink" xmlns:svgjs="http://svgjs.dev/svgjs" width="2000" height="2000" viewBox="0 0 2000 2000"><g transform="matrix(1,0,0,1,0,0)"><svg viewBox="0 0 280 280" data-background-color="#28353b" preserveAspectRatio="xMidYMid meet" height="2000" width="2000" xmlns="http://www.w3.org/2000/svg" xmlns:xlink="http://www.w3.org/1999/xlink"><g id="tight-bounds" transform="matrix(1,0,0,1,0,0)"><svg viewBox="0 0 280 280" height="280" width="280"><g><svg viewBox="0 0 280 280" height="280" width="280"><g><svg viewBox="0 0 280 280" height="280" width="280"><g id="textblocktransform"><svg viewBox="0 0 280 280" height="280" width="280" id="textblock"><g><svg viewBox="0 0 280 280" height="280" width="280"><g transform="matrix(1,0,0,1,74.00336708925556,79.28309772211512)"><svg viewBox="0 0 131.99326582148888 121.43380455576975" height="121.43380455576975" width="131.99326582148888"><g><svg xmlns:x="http://ns.adobe.com/Extensibility/1.0/" xmlns:i="http://ns.adobe.com/AdobeIllustrator/10.0/" xmlns:graph="http://ns.adobe.com/Graphs/1.0/" xmlns="http://www.w3.org/2000/svg" xmlns:xlink="http://www.w3.org/1999/xlink" version="1.1" x="0" y="0" viewBox="7 9 50 46" enable-background="new 0 0 64 64" xml:space="preserve" height="121.43380455576975" width="131.99326582148888" class="icon-o-0" data-fill-palette-color="accent" id="o-0"><g fill="#eb6a5d" data-fill-palette-color="accent"><g fill="#eb6a5d" data-fill-palette-color="accent"><path d="M56 9H8c-0.552 0-1 0.448-1 1v36c0 0.553 0.448 1 1 1h23v6h-9c-0.552 0-1 0.447-1 1s0.448 1 1 1h20c0.553 0 1-0.447 1-1s-0.447-1-1-1h-9v-6h23c0.553 0 1-0.447 1-1V10C57 9.448 56.553 9 56 9zM55 45H9V11h46V45z" fill="#eb6a5d" data-fill-palette-color="accent"></path><path d="M23.293 32.707C23.488 32.902 23.744 33 24 33s0.512-0.098 0.707-0.293c0.391-0.391 0.391-1.023 0-1.414L21.414 28l3.293-3.293c0.391-0.391 0.391-1.023 0-1.414s-1.023-0.391-1.414 0l-4 4c-0.391 0.391-0.391 1.023 0 1.414L23.293 32.707z" fill="#eb6a5d" data-fill-palette-color="accent"></path><path d="M39.293 32.707C39.488 32.902 39.744 33 40 33s0.512-0.098 0.707-0.293l4-4c0.391-0.391 0.391-1.023 0-1.414l-4-4c-0.391-0.391-1.023-0.391-1.414 0s-0.391 1.023 0 1.414L42.586 28l-3.293 3.293C38.902 31.684 38.902 32.316 39.293 32.707z" fill="#eb6a5d" data-fill-palette-color="accent"></path><path d="M29.757 36.97C29.839 36.99 29.92 37 30.001 37c0.448 0 0.855-0.303 0.969-0.758l4-16c0.135-0.536-0.191-1.079-0.728-1.213-0.535-0.138-1.079 0.192-1.212 0.728l-4 16C28.896 36.293 29.222 36.836 29.757 36.97z" fill="#eb6a5d" data-fill-palette-color="accent"></path></g></g></svg></g></svg></g><g><path d="M43.305 192.574L44.692 196.335 18.332 206.059 16.944 202.299 28.691 197.965 23.105 182.821 11.358 187.154 9.971 183.394 36.331 173.67 37.718 177.43 26.381 181.612 31.968 196.757ZM35.943 225.597L46.273 238.309 43.563 240.511 30.705 224.689 52.511 206.969 65.012 222.353 62.301 224.556 52.328 212.282 45.63 217.726 54.514 228.659 51.866 230.812 42.981 219.878ZM58.533 252.927L75.647 230.644 78.826 233.085 61.712 255.369ZM87.93 269.371C85.988 268.547 84.238 267.448 82.68 266.075 81.128 264.704 80.038 263.318 79.412 261.917V261.917L82.003 259.622C82.609 260.921 83.564 262.174 84.869 263.383 86.174 264.591 87.639 265.54 89.264 266.23V266.23C91.407 267.14 93.162 267.458 94.529 267.183 95.896 266.909 96.836 266.169 97.348 264.963V264.963C97.725 264.074 97.742 263.23 97.399 262.431 97.056 261.631 96.522 260.901 95.796 260.241 95.074 259.589 94.016 258.748 92.621 257.717V257.717C90.872 256.421 89.5 255.286 88.506 254.31 87.512 253.335 86.794 252.182 86.353 250.852 85.92 249.518 86.054 248.027 86.755 246.377V246.377C87.342 244.995 88.233 243.904 89.428 243.104 90.623 242.303 92.101 241.885 93.862 241.85 95.623 241.815 97.6 242.262 99.791 243.193V243.193C101.319 243.842 102.737 244.674 104.045 245.689 105.356 246.713 106.385 247.819 107.132 249.005V249.005L104.661 251.448C103.869 250.3 102.932 249.284 101.849 248.4 100.769 247.525 99.638 246.836 98.457 246.335V246.335C96.363 245.445 94.631 245.159 93.26 245.475 91.89 245.791 90.948 246.555 90.433 247.767V247.767C90.058 248.649 90.049 249.493 90.404 250.298 90.759 251.103 91.309 251.846 92.054 252.529 92.801 253.206 93.85 254.036 95.2 255.019V255.019C96.949 256.315 98.315 257.448 99.297 258.418 100.279 259.389 100.993 260.533 101.44 261.851 101.883 263.174 101.76 264.649 101.07 266.275V266.275C100.493 267.632 99.596 268.713 98.377 269.518 97.165 270.326 95.669 270.736 93.888 270.748 92.108 270.761 90.122 270.302 87.93 269.372ZM121.242 274.519L137.498 276.534 137.068 280 116.835 277.492 120.292 249.608 139.964 252.047 139.534 255.513 123.84 253.567 122.778 262.133 136.759 263.866 136.339 267.253 122.358 265.52ZM171.732 246.732L175.668 245.975 180.98 273.565 177.755 274.186 157.232 256.799 161.193 277.374 157.257 278.132 151.945 250.542 155.18 249.919 175.693 267.308ZM201.558 264.133L186.968 240.121 197.083 233.975C199.621 232.433 202.18 231.567 204.758 231.378 207.336 231.189 209.721 231.675 211.912 232.836 214.106 233.987 215.919 235.742 217.351 238.099V238.099C218.783 240.456 219.505 242.873 219.516 245.35 219.537 247.83 218.869 250.17 217.514 252.372 216.158 254.573 214.211 256.445 211.673 257.987V257.987ZM203.17 259.067L209.656 255.126C211.601 253.945 213.082 252.53 214.101 250.882 215.116 249.228 215.608 247.478 215.577 245.631 215.556 243.787 215.002 241.971 213.917 240.185V240.185C212.832 238.399 211.475 237.071 209.849 236.203 208.224 235.325 206.444 234.955 204.508 235.094 202.576 235.239 200.638 235.902 198.693 237.083V237.083L192.207 241.024ZM238.698 230.631L249.279 218.128 251.945 220.384 238.775 235.947 217.327 217.797 230.132 202.665 232.798 204.921 222.582 216.993 229.171 222.569 238.272 211.815 240.877 214.019 231.776 224.774ZM242.533 173.405L244.001 169.664 265.655 191.399 264.202 195.102 233.531 196.346 235.114 192.31 260.29 191.329Z" fill="#ffffff" data-fill-palette-color="primary"></path><path d="M10.601 82.179L11.97 78.454 38.043 88.041 36.674 91.765 25.053 87.493 19.547 102.466 31.168 106.739 29.799 110.463 3.726 100.877 5.096 97.152 16.307 101.274 21.812 86.301ZM46.899 69.942L57.097 57.365 59.778 59.539 47.082 75.199 25.504 57.703 37.851 42.475 40.532 44.65 30.685 56.795 37.312 62.169 46.085 51.349 48.705 53.473 39.933 64.293ZM71.394 50.369L54.473 28.337 57.621 25.92 74.541 47.951ZM96.514 37.146C94.59 37.962 92.606 38.45 90.562 38.612 88.519 38.774 86.784 38.597 85.359 38.08V38.08L85.503 34.657C86.849 35.121 88.399 35.305 90.154 35.208 91.909 35.111 93.59 34.722 95.198 34.041V34.041C97.317 33.143 98.748 32.112 99.491 30.95 100.234 29.787 100.353 28.609 99.847 27.416V27.416C99.476 26.539 98.888 25.947 98.083 25.642 97.278 25.336 96.394 25.216 95.429 25.279 94.465 25.343 93.138 25.517 91.449 25.802V25.802C89.328 26.155 87.579 26.35 86.201 26.388 84.824 26.426 83.511 26.141 82.263 25.535 81.015 24.929 80.045 23.81 79.353 22.178V22.178C78.775 20.814 78.613 19.431 78.868 18.031 79.122 16.63 79.84 15.291 81.023 14.014 82.206 12.737 83.882 11.639 86.05 10.721V10.721C87.56 10.081 89.128 9.646 90.755 9.416 92.382 9.187 93.874 9.215 95.231 9.502V9.502L95.264 12.937C93.903 12.709 92.539 12.676 91.171 12.839 89.803 13.002 88.535 13.331 87.366 13.826V13.826C85.295 14.704 83.902 15.739 83.187 16.933 82.471 18.127 82.367 19.321 82.872 20.514V20.514C83.244 21.391 83.838 21.98 84.655 22.28 85.472 22.581 86.377 22.7 87.371 22.638 88.365 22.576 89.677 22.401 91.308 22.112V22.112C93.428 21.76 95.171 21.567 96.536 21.535 97.902 21.502 99.206 21.783 100.449 22.377 101.692 22.971 102.654 24.071 103.335 25.679V25.679C103.903 27.019 104.056 28.398 103.795 29.816 103.534 31.234 102.797 32.581 101.585 33.856 100.372 35.131 98.682 36.228 96.514 37.146ZM123.177 26.048L139.248 24.079 139.668 27.506 119.658 29.958 116.279 2.385 135.737 0 136.157 3.427 120.638 5.329 121.676 13.798 135.502 12.103 135.912 15.452 122.086 17.146ZM178.374 5.694L182.27 6.45 176.974 33.721 173.78 33.1 161.366 9.587 157.418 29.923 153.522 29.167 158.817 1.896 162.012 2.517 174.425 26.03ZM190.798 40.55L205.252 16.827 215.249 22.919C217.757 24.447 219.68 26.3 221.017 28.478 222.354 30.656 223.012 32.97 222.991 35.42 222.97 37.87 222.25 40.258 220.832 42.586V42.586C219.415 44.913 217.622 46.647 215.454 47.79 213.287 48.932 210.929 49.408 208.38 49.218 205.831 49.029 203.303 48.17 200.795 46.642V46.642ZM195.983 39.667L202.388 43.569C204.309 44.739 206.225 45.396 208.136 45.538 210.048 45.68 211.808 45.32 213.418 44.458 215.028 43.595 216.37 42.283 217.444 40.521V40.521C218.517 38.758 219.068 36.964 219.097 35.138 219.125 33.312 218.638 31.582 217.635 29.949 216.632 28.315 215.17 26.913 213.25 25.743V25.743L206.844 21.841ZM227.978 65.18L238.421 77.553 235.783 79.78 222.78 64.374 244.009 46.457 256.654 61.439 254.015 63.666 243.931 51.716 237.41 57.219 246.394 67.864 243.816 70.04 234.832 59.395ZM274.887 100.476L276.332 104.172 246.023 102.939 244.593 99.28 266.016 77.782 267.576 81.774 249.964 99.396Z" fill="#ffffff" data-fill-palette-color="primary"></path><path d="M3.668 143.251C3.668 137.323 8.473 132.518 14.401 132.518 20.329 132.518 25.134 137.323 25.134 143.251 25.134 149.179 20.329 153.984 14.401 153.984 8.473 153.984 3.668 149.179 3.668 143.251ZM253.688 143.251C253.688 137.323 258.493 132.518 264.421 132.518 270.349 132.518 275.154 137.323 275.154 143.251 275.154 149.179 270.349 153.984 264.421 153.984 258.493 153.984 253.688 149.179 253.688 143.251Z" fill="#ffffff" data-fill-palette-color="primary"></path></g></svg></g></svg></g></svg></g></svg></g><defs></defs></svg><rect width="280" height="280" fill="none" stroke="none" visibility="hidden"></rect></g></svg></g></svg>